<mxfile host="app.diagrams.net" modified="2021-07-14T08:45:29.703Z" agent="5.0 (Windows NT 10.0; Win64; x64) AppleWebKit/537.36 (KHTML, like Gecko) Chrome/91.0.4472.124 Safari/537.36" etag="LLHSLACibVuxQFOL4rxo" version="14.8.6" type="github">
  <diagram id="S26rtdIjdPLfptqU-O7_" name="Page-1">
    <mxGraphModel dx="981" dy="487" grid="1" gridSize="10" guides="1" tooltips="1" connect="1" arrows="1" fold="1" page="1" pageScale="1" pageWidth="827" pageHeight="1169" math="0" shadow="0">
      <root>
        <mxCell id="0" />
        <mxCell id="1" parent="0" />
        <mxCell id="EhTBqBtcY9hzFyyn0ZTI-1" value="" style="rounded=1;whiteSpace=wrap;html=1;fillColor=#f5f5f5;strokeColor=#666666;fontColor=#333333;" vertex="1" parent="1">
          <mxGeometry x="130" y="90" width="530" height="210" as="geometry" />
        </mxCell>
        <mxCell id="EhTBqBtcY9hzFyyn0ZTI-2" value="" style="rounded=1;whiteSpace=wrap;html=1;fillColor=#dae8fc;strokeColor=#6c8ebf;" vertex="1" parent="1">
          <mxGeometry x="150" y="120" width="210" height="70" as="geometry" />
        </mxCell>
        <mxCell id="EhTBqBtcY9hzFyyn0ZTI-3" value="" style="rounded=1;whiteSpace=wrap;html=1;fillColor=#dae8fc;strokeColor=#6c8ebf;" vertex="1" parent="1">
          <mxGeometry x="360" y="120" width="90" height="70" as="geometry" />
        </mxCell>
        <mxCell id="EhTBqBtcY9hzFyyn0ZTI-6" value="" style="rounded=1;whiteSpace=wrap;html=1;fillColor=#dae8fc;strokeColor=#6c8ebf;" vertex="1" parent="1">
          <mxGeometry x="450" y="120" width="190" height="70" as="geometry" />
        </mxCell>
        <mxCell id="EhTBqBtcY9hzFyyn0ZTI-7" value="" style="rounded=1;whiteSpace=wrap;html=1;fillColor=#dae8fc;strokeColor=#6c8ebf;" vertex="1" parent="1">
          <mxGeometry x="150" y="200" width="490" height="90" as="geometry" />
        </mxCell>
        <mxCell id="EhTBqBtcY9hzFyyn0ZTI-8" value="sequencer" style="rounded=0;whiteSpace=wrap;html=1;fillColor=none;strokeColor=none;" vertex="1" parent="1">
          <mxGeometry x="310" y="90" width="120" height="30" as="geometry" />
        </mxCell>
        <mxCell id="EhTBqBtcY9hzFyyn0ZTI-9" value="" style="rounded=1;whiteSpace=wrap;html=1;fillColor=#d5e8d4;strokeColor=#82b366;" vertex="1" parent="1">
          <mxGeometry x="160" y="130" width="190" height="20" as="geometry" />
        </mxCell>
        <mxCell id="EhTBqBtcY9hzFyyn0ZTI-10" value="" style="rounded=1;whiteSpace=wrap;html=1;fillColor=#d5e8d4;strokeColor=#82b366;" vertex="1" parent="1">
          <mxGeometry x="160" y="160" width="190" height="20" as="geometry" />
        </mxCell>
        <mxCell id="EhTBqBtcY9hzFyyn0ZTI-11" value="" style="rounded=1;whiteSpace=wrap;html=1;fillColor=#d5e8d4;strokeColor=#82b366;" vertex="1" parent="1">
          <mxGeometry x="160" y="220" width="470" height="20" as="geometry" />
        </mxCell>
        <mxCell id="EhTBqBtcY9hzFyyn0ZTI-12" value="......" style="rounded=1;whiteSpace=wrap;html=1;fillColor=#d5e8d4;strokeColor=#82b366;" vertex="1" parent="1">
          <mxGeometry x="370" y="130" width="70" height="20" as="geometry" />
        </mxCell>
        <mxCell id="EhTBqBtcY9hzFyyn0ZTI-13" value="&lt;span&gt;......&lt;/span&gt;" style="rounded=1;whiteSpace=wrap;html=1;fillColor=#d5e8d4;strokeColor=#82b366;" vertex="1" parent="1">
          <mxGeometry x="370" y="160" width="70" height="20" as="geometry" />
        </mxCell>
        <mxCell id="EhTBqBtcY9hzFyyn0ZTI-14" value="&lt;span&gt;......&lt;/span&gt;" style="rounded=1;whiteSpace=wrap;html=1;fillColor=#d5e8d4;strokeColor=#82b366;" vertex="1" parent="1">
          <mxGeometry x="460" y="130" width="170" height="20" as="geometry" />
        </mxCell>
        <mxCell id="EhTBqBtcY9hzFyyn0ZTI-15" value="&lt;span&gt;......&lt;/span&gt;" style="rounded=1;whiteSpace=wrap;html=1;fillColor=#d5e8d4;strokeColor=#82b366;" vertex="1" parent="1">
          <mxGeometry x="460" y="160" width="170" height="20" as="geometry" />
        </mxCell>
        <mxCell id="EhTBqBtcY9hzFyyn0ZTI-16" value="" style="rounded=1;whiteSpace=wrap;html=1;fillColor=#d5e8d4;strokeColor=#82b366;" vertex="1" parent="1">
          <mxGeometry x="160" y="250" width="470" height="20" as="geometry" />
        </mxCell>
        <mxCell id="EhTBqBtcY9hzFyyn0ZTI-17" value="" style="rounded=1;whiteSpace=wrap;html=1;fillColor=#ffe6cc;strokeColor=#d79b00;" vertex="1" parent="1">
          <mxGeometry x="170" y="135" width="60" height="10" as="geometry" />
        </mxCell>
        <mxCell id="EhTBqBtcY9hzFyyn0ZTI-18" value="" style="rounded=1;whiteSpace=wrap;html=1;fillColor=#ffe6cc;strokeColor=#d79b00;" vertex="1" parent="1">
          <mxGeometry x="230" y="135" width="40" height="10" as="geometry" />
        </mxCell>
        <mxCell id="EhTBqBtcY9hzFyyn0ZTI-19" value="" style="rounded=1;whiteSpace=wrap;html=1;fillColor=#ffe6cc;strokeColor=#d79b00;" vertex="1" parent="1">
          <mxGeometry x="270" y="135" width="40" height="10" as="geometry" />
        </mxCell>
        <mxCell id="EhTBqBtcY9hzFyyn0ZTI-20" value="" style="rounded=1;whiteSpace=wrap;html=1;fillColor=#ffe6cc;strokeColor=#d79b00;" vertex="1" parent="1">
          <mxGeometry x="310" y="135" width="30" height="10" as="geometry" />
        </mxCell>
        <mxCell id="EhTBqBtcY9hzFyyn0ZTI-21" value="" style="rounded=1;whiteSpace=wrap;html=1;fillColor=#ffe6cc;strokeColor=#d79b00;" vertex="1" parent="1">
          <mxGeometry x="160" y="165" width="190" height="10" as="geometry" />
        </mxCell>
        <mxCell id="EhTBqBtcY9hzFyyn0ZTI-25" value="" style="rhombus;whiteSpace=wrap;html=1;fillColor=#e1d5e7;strokeColor=#9673a6;" vertex="1" parent="1">
          <mxGeometry x="170" y="165" width="10" height="10" as="geometry" />
        </mxCell>
        <mxCell id="EhTBqBtcY9hzFyyn0ZTI-27" value="" style="rhombus;whiteSpace=wrap;html=1;fillColor=#e1d5e7;strokeColor=#9673a6;" vertex="1" parent="1">
          <mxGeometry x="195" y="165" width="10" height="10" as="geometry" />
        </mxCell>
        <mxCell id="EhTBqBtcY9hzFyyn0ZTI-28" value="" style="rhombus;whiteSpace=wrap;html=1;fillColor=#e1d5e7;strokeColor=#9673a6;" vertex="1" parent="1">
          <mxGeometry x="250" y="165" width="10" height="10" as="geometry" />
        </mxCell>
        <mxCell id="EhTBqBtcY9hzFyyn0ZTI-32" value="" style="rounded=1;whiteSpace=wrap;html=1;fillColor=#ffe6cc;strokeColor=#d79b00;" vertex="1" parent="1">
          <mxGeometry x="160" y="225" width="470" height="10" as="geometry" />
        </mxCell>
        <mxCell id="EhTBqBtcY9hzFyyn0ZTI-33" value="" style="rhombus;whiteSpace=wrap;html=1;fillColor=#e1d5e7;strokeColor=#9673a6;" vertex="1" parent="1">
          <mxGeometry x="210" y="225" width="10" height="10" as="geometry" />
        </mxCell>
        <mxCell id="EhTBqBtcY9hzFyyn0ZTI-34" value="" style="rhombus;whiteSpace=wrap;html=1;fillColor=#e1d5e7;strokeColor=#9673a6;" vertex="1" parent="1">
          <mxGeometry x="240" y="225" width="10" height="10" as="geometry" />
        </mxCell>
        <mxCell id="EhTBqBtcY9hzFyyn0ZTI-35" value="" style="rhombus;whiteSpace=wrap;html=1;fillColor=#e1d5e7;strokeColor=#9673a6;" vertex="1" parent="1">
          <mxGeometry x="260" y="225" width="10" height="10" as="geometry" />
        </mxCell>
        <mxCell id="EhTBqBtcY9hzFyyn0ZTI-36" value="" style="rounded=1;whiteSpace=wrap;html=1;fillColor=#ffe6cc;strokeColor=#d79b00;" vertex="1" parent="1">
          <mxGeometry x="170" y="255" width="45" height="10" as="geometry" />
        </mxCell>
        <mxCell id="EhTBqBtcY9hzFyyn0ZTI-37" value="" style="rounded=1;whiteSpace=wrap;html=1;fillColor=#ffe6cc;strokeColor=#d79b00;" vertex="1" parent="1">
          <mxGeometry x="215" y="255" width="250" height="10" as="geometry" />
        </mxCell>
        <mxCell id="EhTBqBtcY9hzFyyn0ZTI-38" value="" style="rounded=1;whiteSpace=wrap;html=1;fillColor=#ffe6cc;strokeColor=#d79b00;" vertex="1" parent="1">
          <mxGeometry x="465" y="255" width="155" height="10" as="geometry" />
        </mxCell>
        <mxCell id="EhTBqBtcY9hzFyyn0ZTI-39" value="" style="endArrow=classic;html=1;dashed=1;fillColor=#60a917;strokeColor=#2D7600;strokeWidth=1;dashPattern=1 4;" edge="1" parent="1">
          <mxGeometry width="50" height="50" relative="1" as="geometry">
            <mxPoint x="215" y="44.67" as="sourcePoint" />
            <mxPoint x="215" y="365.622380952381" as="targetPoint" />
          </mxGeometry>
        </mxCell>
        <mxCell id="EhTBqBtcY9hzFyyn0ZTI-40" value="evaluate/seek" style="text;html=1;align=center;verticalAlign=middle;resizable=0;points=[];autosize=1;labelBackgroundColor=#ffffff;fontColor=#4D9900;" vertex="1" parent="1">
          <mxGeometry x="180" y="20" width="90" height="20" as="geometry" />
        </mxCell>
        <mxCell id="EhTBqBtcY9hzFyyn0ZTI-42" value="" style="shape=flexArrow;endArrow=classic;html=1;fontColor=#4D9900;endWidth=10.277777777777777;endSize=5.277777777777778;" edge="1" parent="1">
          <mxGeometry width="50" height="50" relative="1" as="geometry">
            <mxPoint x="270" y="29.800000000000004" as="sourcePoint" />
            <mxPoint x="305" y="29.800000000000004" as="targetPoint" />
          </mxGeometry>
        </mxCell>
        <mxCell id="EhTBqBtcY9hzFyyn0ZTI-46" value="" style="curved=1;endArrow=classic;html=1;fontColor=#4D9900;strokeWidth=1;fillColor=#60a917;strokeColor=#2D7600;" edge="1" parent="1">
          <mxGeometry width="50" height="50" relative="1" as="geometry">
            <mxPoint x="215" y="265" as="sourcePoint" />
            <mxPoint x="270" y="320" as="targetPoint" />
            <Array as="points">
              <mxPoint x="245" y="285" />
              <mxPoint x="260" y="300" />
            </Array>
          </mxGeometry>
        </mxCell>
        <mxCell id="EhTBqBtcY9hzFyyn0ZTI-49" value="enter/exit cue" style="edgeLabel;html=1;align=center;verticalAlign=middle;resizable=0;points=[];fontColor=#4D9900;" vertex="1" connectable="0" parent="EhTBqBtcY9hzFyyn0ZTI-46">
          <mxGeometry x="0.7973" y="4" relative="1" as="geometry">
            <mxPoint y="19" as="offset" />
          </mxGeometry>
        </mxCell>
        <mxCell id="EhTBqBtcY9hzFyyn0ZTI-52" value="" style="curved=1;endArrow=classic;html=1;fontColor=#4D9900;strokeWidth=1;fillColor=#60a917;strokeColor=#2D7600;" edge="1" parent="1">
          <mxGeometry width="50" height="50" relative="1" as="geometry">
            <mxPoint x="220" y="233" as="sourcePoint" />
            <mxPoint x="340" y="330" as="targetPoint" />
            <Array as="points">
              <mxPoint x="270" y="253" />
              <mxPoint x="320" y="290" />
            </Array>
          </mxGeometry>
        </mxCell>
        <mxCell id="EhTBqBtcY9hzFyyn0ZTI-53" value="user defined cue" style="edgeLabel;html=1;align=center;verticalAlign=middle;resizable=0;points=[];fontColor=#4D9900;" vertex="1" connectable="0" parent="EhTBqBtcY9hzFyyn0ZTI-52">
          <mxGeometry x="0.7973" y="4" relative="1" as="geometry">
            <mxPoint x="27" y="25" as="offset" />
          </mxGeometry>
        </mxCell>
        <mxCell id="EhTBqBtcY9hzFyyn0ZTI-54" value="" style="rounded=1;whiteSpace=wrap;html=1;fillColor=#f5f5f5;strokeColor=#666666;fontColor=#333333;" vertex="1" parent="1">
          <mxGeometry x="10" y="145" width="100" height="155" as="geometry" />
        </mxCell>
        <mxCell id="EhTBqBtcY9hzFyyn0ZTI-55" value="Segment" style="rounded=1;whiteSpace=wrap;html=1;fillColor=#dae8fc;strokeColor=#6c8ebf;" vertex="1" parent="1">
          <mxGeometry x="20" y="165" width="80" height="20" as="geometry" />
        </mxCell>
        <mxCell id="EhTBqBtcY9hzFyyn0ZTI-57" value="Track" style="rounded=1;whiteSpace=wrap;html=1;fillColor=#d5e8d4;strokeColor=#82b366;" vertex="1" parent="1">
          <mxGeometry x="20" y="200" width="80" height="20" as="geometry" />
        </mxCell>
        <mxCell id="EhTBqBtcY9hzFyyn0ZTI-58" value="Section" style="rounded=1;whiteSpace=wrap;html=1;fillColor=#ffe6cc;strokeColor=#d79b00;" vertex="1" parent="1">
          <mxGeometry x="20" y="235" width="80" height="20" as="geometry" />
        </mxCell>
        <mxCell id="EhTBqBtcY9hzFyyn0ZTI-59" value="" style="rhombus;whiteSpace=wrap;html=1;fillColor=#e1d5e7;strokeColor=#9673a6;" vertex="1" parent="1">
          <mxGeometry x="20" y="275" width="10" height="10" as="geometry" />
        </mxCell>
        <mxCell id="EhTBqBtcY9hzFyyn0ZTI-65" value="&lt;font color=&quot;#030303&quot;&gt;Frame&lt;/font&gt;" style="rounded=0;whiteSpace=wrap;html=1;labelBackgroundColor=#ffffff;fontColor=#4D9900;strokeColor=none;fillColor=none;" vertex="1" parent="1">
          <mxGeometry x="25" y="270" width="70" height="20" as="geometry" />
        </mxCell>
      </root>
    </mxGraphModel>
  </diagram>
</mxfile>
